<mxfile host="app.diagrams.net" modified="2024-05-31T20:14:22.241Z" agent="Mozilla/5.0 (Macintosh; Intel Mac OS X 10_15_7) AppleWebKit/537.36 (KHTML, like Gecko) Chrome/125.0.0.0 Safari/537.36" etag="KQ656XzKqv6FPwceJs0P" version="24.4.13" type="github">
  <diagram name="Page-1" id="e7e014a7-5840-1c2e-5031-d8a46d1fe8dd">
    <mxGraphModel dx="1029" dy="576" grid="1" gridSize="10" guides="1" tooltips="1" connect="1" arrows="1" fold="1" page="1" pageScale="1" pageWidth="1169" pageHeight="826" background="none" math="0" shadow="0">
      <root>
        <mxCell id="0" />
        <mxCell id="1" parent="0" />
        <mxCell id="2" value="ОФОРМЛЕНИЕ ЗАКАЗА" style="swimlane;whiteSpace=wrap" parent="1" vertex="1">
          <mxGeometry x="170" y="128" width="280" height="832" as="geometry" />
        </mxCell>
        <mxCell id="5" value="user" style="ellipse;shape=startState;fillColor=#000000;strokeColor=#ff0000;fontColor=#FFFFFF;fontSize=16;" parent="2" vertex="1">
          <mxGeometry x="85" y="22" width="60" height="60" as="geometry" />
        </mxCell>
        <mxCell id="6" value="" style="edgeStyle=elbowEdgeStyle;elbow=horizontal;verticalAlign=bottom;endArrow=open;endSize=8;strokeColor=#FF0000;endFill=1;rounded=0;exitX=0.491;exitY=0.904;exitDx=0;exitDy=0;exitPerimeter=0;" parent="2" source="5" edge="1">
          <mxGeometry x="100" y="40" as="geometry">
            <mxPoint x="114.70941176470586" y="128.36" as="targetPoint" />
            <mxPoint x="114.74000000000007" y="81.99999999999999" as="sourcePoint" />
          </mxGeometry>
        </mxCell>
        <mxCell id="7" value="РЕГИСТРАЦИЯ" style="" parent="2" vertex="1">
          <mxGeometry x="60" y="122" width="110" height="50" as="geometry" />
        </mxCell>
        <mxCell id="8" value="АВТОРИЗАЦИЯ" style="" parent="2" vertex="1">
          <mxGeometry x="60" y="220" width="110" height="50" as="geometry" />
        </mxCell>
        <mxCell id="9" value="" style="endArrow=open;strokeColor=#FF0000;endFill=1;rounded=0" parent="2" source="7" target="8" edge="1">
          <mxGeometry relative="1" as="geometry" />
        </mxCell>
        <mxCell id="10" value="ПРОСМОТР&#xa;МЕНЮ" style="" parent="2" vertex="1">
          <mxGeometry x="60" y="325" width="110" height="50" as="geometry" />
        </mxCell>
        <mxCell id="11" value="" style="endArrow=open;strokeColor=#FF0000;endFill=1;rounded=0" parent="2" source="8" target="10" edge="1">
          <mxGeometry relative="1" as="geometry" />
        </mxCell>
        <mxCell id="0CixfW4OBZo3Qb_k85tk-72" style="edgeStyle=orthogonalEdgeStyle;rounded=0;orthogonalLoop=1;jettySize=auto;html=1;entryX=1;entryY=0.75;entryDx=0;entryDy=0;fillColor=#f8cecc;strokeColor=#b85450;" edge="1" parent="2" source="0CixfW4OBZo3Qb_k85tk-43" target="0CixfW4OBZo3Qb_k85tk-49">
          <mxGeometry relative="1" as="geometry">
            <Array as="points">
              <mxPoint x="226" y="472" />
              <mxPoint x="226" y="581" />
            </Array>
          </mxGeometry>
        </mxCell>
        <mxCell id="0CixfW4OBZo3Qb_k85tk-43" value="СОЗДАНИЕ&#xa;ЗАКАЗА" style="" vertex="1" parent="2">
          <mxGeometry x="60" y="430" width="110" height="52" as="geometry" />
        </mxCell>
        <mxCell id="0CixfW4OBZo3Qb_k85tk-44" value="" style="endArrow=open;strokeColor=#FF0000;endFill=1;rounded=0;exitX=0.5;exitY=1;exitDx=0;exitDy=0;" edge="1" parent="2" target="0CixfW4OBZo3Qb_k85tk-43" source="10">
          <mxGeometry relative="1" as="geometry">
            <mxPoint x="115.5" y="382" as="sourcePoint" />
          </mxGeometry>
        </mxCell>
        <mxCell id="0CixfW4OBZo3Qb_k85tk-49" value="ОПЛАТА" style="" vertex="1" parent="2">
          <mxGeometry x="60" y="542" width="110" height="52" as="geometry" />
        </mxCell>
        <mxCell id="0CixfW4OBZo3Qb_k85tk-50" value="" style="endArrow=open;strokeColor=#FF0000;endFill=1;rounded=0;entryX=0.5;entryY=0;entryDx=0;entryDy=0;" edge="1" parent="2" source="0CixfW4OBZo3Qb_k85tk-49" target="0CixfW4OBZo3Qb_k85tk-51">
          <mxGeometry relative="1" as="geometry">
            <mxPoint x="115" y="649" as="targetPoint" />
          </mxGeometry>
        </mxCell>
        <mxCell id="0CixfW4OBZo3Qb_k85tk-51" value="ОТСЛЕЖИВАНИЕ&#xa;СТАТУСА&#xa;ЗАКАЗА" style="" vertex="1" parent="2">
          <mxGeometry x="60" y="652" width="110" height="68" as="geometry" />
        </mxCell>
        <mxCell id="3" value="ОБСЛУЖИВАНИЕ ЗАКАЗА (РЕСТОРАН)" style="swimlane;whiteSpace=wrap" parent="1" vertex="1">
          <mxGeometry x="450" y="128" width="325.5" height="832" as="geometry" />
        </mxCell>
        <mxCell id="13" value="admin" style="ellipse;shape=startState;fillColor=#000000;strokeColor=#ff0000;fontColor=#FFFFFF;fontSize=16;" parent="3" vertex="1">
          <mxGeometry x="107.75" y="32" width="64.5" height="68" as="geometry" />
        </mxCell>
        <mxCell id="14" value="" style="edgeStyle=elbowEdgeStyle;elbow=horizontal;verticalAlign=bottom;endArrow=open;endSize=8;strokeColor=#FF0000;endFill=1;rounded=0;exitX=0.517;exitY=0.941;exitDx=0;exitDy=0;exitPerimeter=0;" parent="3" source="13" edge="1">
          <mxGeometry x="40" y="20" as="geometry">
            <mxPoint x="140.83333333333326" y="142" as="targetPoint" />
          </mxGeometry>
        </mxCell>
        <mxCell id="15" value="ПОЛУЧЕНИЕ  ЗАКАЗА" style="" parent="3" vertex="1">
          <mxGeometry x="20" y="142" width="240" height="50" as="geometry" />
        </mxCell>
        <mxCell id="16" value="ФОРМИРОВАНИЕ&#xa;ЗАКАЗА" style="" parent="3" vertex="1">
          <mxGeometry x="85.5" y="312" width="110" height="70" as="geometry" />
        </mxCell>
        <mxCell id="17" value="" style="endArrow=open;strokeColor=#FF0000;endFill=1;rounded=0" parent="3" source="15" target="16" edge="1">
          <mxGeometry relative="1" as="geometry" />
        </mxCell>
        <mxCell id="19" value="" style="endArrow=open;strokeColor=#FF0000;endFill=1;rounded=0" parent="3" source="16" edge="1">
          <mxGeometry relative="1" as="geometry">
            <mxPoint x="140.08333333333303" y="472" as="targetPoint" />
          </mxGeometry>
        </mxCell>
        <mxCell id="0CixfW4OBZo3Qb_k85tk-69" value="" style="curved=1;endArrow=classic;html=1;rounded=0;entryX=0;entryY=0.5;entryDx=0;entryDy=0;fillColor=#dae8fc;strokeColor=#6c8ebf;strokeWidth=3;" edge="1" parent="3" target="15">
          <mxGeometry width="50" height="50" relative="1" as="geometry">
            <mxPoint x="-50" y="532" as="sourcePoint" />
            <mxPoint x="85.5" y="62" as="targetPoint" />
            <Array as="points">
              <mxPoint x="145.5" y="407" />
              <mxPoint x="-184.5" y="257" />
            </Array>
          </mxGeometry>
        </mxCell>
        <mxCell id="0CixfW4OBZo3Qb_k85tk-73" value="ОБНОВЛЕНИЕ&#xa;СТАТУСА&#xa;ЗАКАЗА" style="" vertex="1" parent="3">
          <mxGeometry x="85" y="472" width="110" height="70" as="geometry" />
        </mxCell>
        <mxCell id="4" value="ДОСТАВКА" style="swimlane;whiteSpace=wrap" parent="1" vertex="1">
          <mxGeometry x="775.5" y="128" width="234.5" height="832" as="geometry" />
        </mxCell>
        <mxCell id="0CixfW4OBZo3Qb_k85tk-57" value="КУРЬЕР" style="ellipse;shape=startState;fillColor=#000000;strokeColor=#ff0000;fontColor=#FFFFFF;fontSize=16;" vertex="1" parent="4">
          <mxGeometry x="70" y="40" width="100" height="90" as="geometry" />
        </mxCell>
        <mxCell id="0CixfW4OBZo3Qb_k85tk-59" value="ПОЛУЧЕНИЕ  ЗАДАНИЯ&#xa;НА ДОСТАВКУ" style="" vertex="1" parent="4">
          <mxGeometry x="42.25" y="192" width="150" height="50" as="geometry" />
        </mxCell>
        <mxCell id="0CixfW4OBZo3Qb_k85tk-60" value="ОБНОВЛЕНИЕ&#xa;СТАТУСА&#xa;ДОСТАВКИ" style="" vertex="1" parent="4">
          <mxGeometry x="60" y="342" width="110" height="70" as="geometry" />
        </mxCell>
        <mxCell id="0CixfW4OBZo3Qb_k85tk-61" value="" style="endArrow=open;strokeColor=#FF0000;endFill=1;rounded=0" edge="1" parent="4" source="0CixfW4OBZo3Qb_k85tk-59" target="0CixfW4OBZo3Qb_k85tk-60">
          <mxGeometry relative="1" as="geometry" />
        </mxCell>
        <mxCell id="0CixfW4OBZo3Qb_k85tk-77" value="" style="endArrow=classic;html=1;rounded=0;entryX=0.5;entryY=0;entryDx=0;entryDy=0;fillColor=#f8cecc;strokeColor=#b85450;" edge="1" parent="4" source="0CixfW4OBZo3Qb_k85tk-57" target="0CixfW4OBZo3Qb_k85tk-59">
          <mxGeometry width="50" height="50" relative="1" as="geometry">
            <mxPoint x="-155.5" y="292" as="sourcePoint" />
            <mxPoint x="-105.5" y="242" as="targetPoint" />
          </mxGeometry>
        </mxCell>
        <mxCell id="0CixfW4OBZo3Qb_k85tk-75" value="" style="curved=1;endArrow=classic;html=1;rounded=0;entryX=0;entryY=0.5;entryDx=0;entryDy=0;exitX=1;exitY=0.5;exitDx=0;exitDy=0;fillColor=#dae8fc;strokeColor=#6c8ebf;strokeWidth=3;" edge="1" parent="1" source="16" target="0CixfW4OBZo3Qb_k85tk-59">
          <mxGeometry width="50" height="50" relative="1" as="geometry">
            <mxPoint x="620" y="530" as="sourcePoint" />
            <mxPoint x="670" y="480" as="targetPoint" />
            <Array as="points">
              <mxPoint x="670" y="530" />
              <mxPoint x="650" y="370" />
              <mxPoint x="770" y="520" />
              <mxPoint x="680" y="370" />
            </Array>
          </mxGeometry>
        </mxCell>
      </root>
    </mxGraphModel>
  </diagram>
</mxfile>
